<?xml version="1.0" standalone="no"?><!DOCTYPE svg PUBLIC "-//W3C//DTD SVG 1.1//EN" "http://www.w3.org/Graphics/SVG/1.1/DTD/svg11.dtd"><svg t="1630978144331" class="icon" viewBox="0 0 1024 1024" version="1.1" xmlns="http://www.w3.org/2000/svg" p-id="2815" xmlns:xlink="http://www.w3.org/1999/xlink" width="200" height="200"><defs><style type="text/css"></style></defs><path d="M862.4 112H161.6a49.6 49.6 0 0 0-49.6 49.6v700.8a49.6 49.6 0 0 0 49.6 49.6h700.8a49.6 49.6 0 0 0 49.6-49.6V161.6a49.6 49.6 0 0 0-49.6-49.6z m-416 103.7h118.53v29.63H476v44.45h88.89v29.63H476v44.44h88.89v29.63H446.41z m-177.78 0h44.44l59.26 118.52V215.7h44.44v177.78h-44.42L311.59 272l1.48 121.48h-44.44zM476 749H268.63v-44.41H476z m0-118.52H268.63v-44.41H476zM476 512H268.63v-44.45H476z m296.3 237h-237V467.55h237z m0-355.56h-44.41l-31.11-134.77-28.15 134.81h-44.44L594.56 215.7h29.63L653.82 349l29.63-133.3h29.63L742.7 349l29.64-133.3H802z" fill="#EF851A" p-id="2816"></path></svg>