<?xml version="1.0" standalone="no"?><!DOCTYPE svg PUBLIC "-//W3C//DTD SVG 1.1//EN" "http://www.w3.org/Graphics/SVG/1.1/DTD/svg11.dtd"><svg t="1631015182130" class="icon" viewBox="0 0 1024 1024" version="1.1" xmlns="http://www.w3.org/2000/svg" p-id="4649" xmlns:xlink="http://www.w3.org/1999/xlink" width="200" height="200"><defs><style type="text/css"></style></defs><path d="M881.21344 0h-177.17248L141.18912 1.61792C91.5456 1.55648 51.28192 42.02496 51.2 91.99616v147.27168h102.83008c19.29216 0 33.75104 14.56128 33.75104 33.9968v22.65088c0 19.41504-14.45888 33.97632-33.75104 33.97632l-101.00736 0.28672-0.22528 45.03552v250.83904h102.8096c19.29216 0 33.75104 14.58176 33.75104 33.9968v22.65088c0 19.43552-14.45888 33.97632-33.75104 33.97632l-101.23264 0.28672v216.35072c-0.08192 49.9712 40.07936 90.54208 89.7024 90.624h738.75456C932.4544 1024 972.71808 983.53152 972.8 933.56032V90.624C971.20256 40.448 931.0208 0 881.21344 0z m-61.46048 752.29184s-1.61792 3.23584-1.61792 4.85376c-1.59744 3.23584-6.41024 8.0896-9.6256 11.32544l-9.64608 4.85376-6.43072 1.61792H307.0976c-3.21536-1.61792-8.02816-3.23584-11.24352-4.83328-3.21536-1.61792-6.43072-6.49216-8.02816-11.34592 0-1.61792-1.61792-4.85376-1.61792-4.85376-1.59744-1.61792-6.43072-22.65088 0-45.32224v-1.61792l1.61792-1.61792c16.05632-21.03296 54.62016-43.68384 96.44032-66.33472 38.58432-21.05344 94.8224-53.41184 94.8224-69.59104v-9.70752a14.7456 14.7456 0 0 0-4.8128-11.34592c-33.75104-33.97632-51.44576-80.896-51.44576-131.072 0-80.91648 16.09728-165.0688 130.19136-165.0688s130.17088 82.51392 130.17088 165.0688c0 50.176-17.69472 97.13664-51.42528 131.072a14.70464 14.70464 0 0 0-4.83328 11.34592v9.70752c0 16.1792 57.87648 48.5376 94.8224 69.59104 41.7792 22.65088 80.34304 45.30176 96.4608 66.33472l1.59744 1.61792v1.61792c8.04864 21.05344 1.61792 42.0864 0 43.70432h-0.06144z" fill="#FFAF35" p-id="4650"></path></svg>