<?xml version="1.0" standalone="no"?><!DOCTYPE svg PUBLIC "-//W3C//DTD SVG 1.1//EN" "http://www.w3.org/Graphics/SVG/1.1/DTD/svg11.dtd"><svg t="1631015229367" class="icon" viewBox="0 0 1106 1024" version="1.1" xmlns="http://www.w3.org/2000/svg" p-id="6927" xmlns:xlink="http://www.w3.org/1999/xlink" width="216.015625" height="200"><defs><style type="text/css"></style></defs><path d="M541.75593514 353.50668828m-202.69348668 0a202.69348671 202.69348671 0 1 0 405.38697341 0 202.69348671 202.69348671 0 1 0-405.38697341 0Z" fill="#FBCB3B" p-id="6928"></path><path d="M541.75593514 565.80195004a212.2952625 212.2952625 0 1 1 212.29526252-212.29526176 212.55130939 212.55130939 0 0 1-212.29526249 212.29526178z m3e-8-405.38697265a193.0917109 193.0917109 0 1 0 193.09171089 193.09171089A193.31575193 193.31575193 0 0 0 541.75593514 160.41497739z" fill="#FF9C15" p-id="6929"></path><path d="M203.93345758 867.74579184a34.63040431 34.63040431 0 0 1-51.20947095-40.64751713c46.12052957-134.10480187 202.72549255-232.84306245 389.03194854-232.84306245s343.03944241 98.73826058 388.96793608 232.84306245a34.63040431 34.63040431 0 0 1-51.20947022 40.64751713 635.15746736 635.15746736 0 0 0-675.64495518 0z" fill="#FBCB3B" p-id="6930"></path><path d="M185.46604223 882.78857421a44.04014496 44.04014496 0 0 1-27.36506075-9.60177579 43.84810906 43.84810906 0 0 1-14.40266369-49.12908633c48.26492589-140.82604436 211.94319729-239.34026391 398.05761738-239.34026392s349.79269148 98.41820196 398.05761737 239.34026392a44.23218013 44.23218013 0 0 1-65.32408117 51.88159548 625.58769742 625.58769742 0 0 0-665.46707242 0 44.16816839 44.16816839 0 0 1-23.55635672 6.84926666z m356.28989291-278.93158612c-178.01692267 0-334.23781461 93.07321297-379.8782555 226.34586094A25.02862853 25.02862853 0 0 0 198.84451618 859.61628857a644.75924242 644.75924242 0 0 1 685.88684967-2e-8 25.02862853 25.02862853 0 0 0 36.93483068-29.41343948c-45.67244678-133.27264731-201.89333872-226.345861-379.91026136-226.34586098z" fill="#FF9C15" p-id="6931"></path><path d="M544.50844431 519.93746811c-47.11271345 0-85.45580418-30.78969443-85.4558042-68.68470313a13.31446225 13.31446225 0 1 1 26.62892446 0c0 23.20429153 26.40488346 42.08778379 58.82687974 42.08778379s58.85888557-18.88349225 58.85888559-42.08778379a13.31446225 13.31446225 0 0 1 26.62892446 0c-0.03200588 37.8950087-38.37509735 68.6847024-85.48781005 68.68470313z" fill="#FFFFFF" p-id="6932"></path></svg>