<?xml version="1.0" standalone="no"?><!DOCTYPE svg PUBLIC "-//W3C//DTD SVG 1.1//EN" "http://www.w3.org/Graphics/SVG/1.1/DTD/svg11.dtd"><svg t="1630978046611" class="icon" viewBox="0 0 1024 1024" version="1.1" xmlns="http://www.w3.org/2000/svg" p-id="2034" xmlns:xlink="http://www.w3.org/1999/xlink" width="200" height="200"><defs><style type="text/css"></style></defs><path d="M896.96 933.875H591.103c-21.094 0-36.914-15.82-36.914-36.914V591.1c-5.274-26.367 10.546-42.187 36.914-42.187H896.96c21.094 0 36.914 15.82 36.914 42.188V896.96c0 21.094-15.82 36.914-36.914 36.914zM749.306 496.18c-10.547 10.547-31.64 10.547-42.188 0L527.82 316.883c-10.547-10.547-10.547-31.64 0-42.188l174.024-174.023c10.547-10.547 31.64-10.547 42.187 0l174.024 174.023c10.547 10.547 10.547 31.64 0 42.188L749.305 496.18zM432.898 933.875H127.04c-21.094 0-36.914-15.82-36.914-36.914V591.1c0-26.367 15.82-42.187 36.914-42.187H432.9c26.367 0 42.187 15.82 42.187 42.188V896.96c0 21.094-15.82 36.914-42.188 36.914z m0-458.79H127.04c-21.094 0-36.914-15.82-36.914-42.187V127.04c0-21.094 15.82-36.914 36.914-36.914H432.9c26.367 0 42.187 15.82 42.187 36.914V432.9c0 26.367-15.82 42.187-42.188 42.187z m0 0" fill="#FA8435" p-id="2035"></path></svg>