<?xml version="1.0" standalone="no"?><!DOCTYPE svg PUBLIC "-//W3C//DTD SVG 1.1//EN" "http://www.w3.org/Graphics/SVG/1.1/DTD/svg11.dtd"><svg t="1631013682210" class="icon" viewBox="0 0 1024 1024" version="1.1" xmlns="http://www.w3.org/2000/svg" p-id="2998" xmlns:xlink="http://www.w3.org/1999/xlink" width="200" height="200"><defs><style type="text/css"></style></defs><path d="M150.588235 0h722.82353c83.169882 0 150.588235 67.418353 150.588235 150.588235v722.82353c0 83.169882-67.418353 150.588235-150.588235 150.588235H150.588235C67.418353 1024 0 956.581647 0 873.411765V150.588235C0 67.418353 67.418353 0 150.588235 0z m593.182118 286.117647H280.169412A69.451294 69.451294 0 0 0 210.823529 355.644235v312.771765A69.391059 69.391059 0 0 0 280.169412 737.882353h463.661176A69.421176 69.421176 0 0 0 813.176471 668.416v-312.771765C813.116235 317.244235 782.064941 286.117647 743.770353 286.117647zM282.172235 636.958118a13.974588 13.974588 0 0 1-10.857411-16.414118 123.964235 123.964235 0 0 1 86.663529-96.301176 73.351529 73.351529 0 0 1-38.068706-64.406589c0-40.463059 32.150588-73.336471 71.634824-73.33647 39.469176 0 71.634824 32.933647 71.634823 73.33647a73.351529 73.351529 0 0 1-38.098823 64.406589 123.798588 123.798588 0 0 1 86.678588 96.677647 13.974588 13.974588 0 0 1-10.902588 16.338823 12.769882 12.769882 0 0 1-2.56 0.225882l-216.124236-0.527058zM597.534118 426.661647h99.96047c7.951059 0 15.269647 11.595294 15.269647 20.088471 0 8.493176-7.318588 20.073412-15.269647 20.073411h-99.96047c-7.951059 0-15.269647-11.580235-15.269647-20.073411 0-8.508235 7.318588-20.088471 15.269647-20.088471z m0 80.323765h99.96047c7.951059 0 15.269647 11.565176 15.269647 20.073412s-7.318588 20.073412-15.269647 20.073411h-99.96047c-7.951059 0-15.269647-11.565176-15.269647-20.073411s7.318588-20.073412 15.269647-20.073412zM738.334118 617.411765h-141.477647c-7.589647 0-14.607059-11.580235-14.607059-20.073412 0-8.508235 7.017412-20.088471 14.607059-20.088471h141.477647c7.589647 0 14.592 11.595294 14.592 20.088471 0 8.493176-7.002353 20.073412-14.592 20.073412z" fill="#F1B619" p-id="2999"></path></svg>