<?xml version="1.0" standalone="no"?><!DOCTYPE svg PUBLIC "-//W3C//DTD SVG 1.1//EN" "http://www.w3.org/Graphics/SVG/1.1/DTD/svg11.dtd"><svg t="1631015133214" class="icon" viewBox="0 0 1114 1024" version="1.1" xmlns="http://www.w3.org/2000/svg" p-id="3809" xmlns:xlink="http://www.w3.org/1999/xlink" width="217.578125" height="200"><defs><style type="text/css"></style></defs><path d="M301.176471 428.122353l783.058823 0 0 559.284706-783.058823 0 0-559.284706Z" fill="#FFCB57" p-id="3810"></path><path d="M933.647059 1024H180.705882A180.705882 180.705882 0 0 1 0 843.294118V391.529412a180.705882 180.705882 0 0 1 180.705882-180.705883h752.941177a180.705882 180.705882 0 0 1 180.705882 180.705883v451.764706a180.705882 180.705882 0 0 1-180.705882 180.705882zM180.705882 271.058824a120.470588 120.470588 0 0 0-120.470588 120.470588v451.764706a120.470588 120.470588 0 0 0 120.470588 120.470588h752.941177a120.470588 120.470588 0 0 0 120.470588-120.470588V391.529412a120.470588 120.470588 0 0 0-120.470588-120.470588z" fill="#472D22" p-id="3811"></path><path d="M331.294118 828.235294a180.705882 180.705882 0 1 1 180.705882-180.705882 180.705882 180.705882 0 0 1-180.705882 180.705882z m0-301.17647a120.470588 120.470588 0 1 0 120.470588 120.470588 120.470588 120.470588 0 0 0-120.470588-120.470588zM722.823529 752.941176a30.117647 30.117647 0 0 1-30.117647-30.117647V557.176471a30.117647 30.117647 0 0 1 60.235294 0v165.647058a30.117647 30.117647 0 0 1-30.117647 30.117647zM933.647059 752.941176a30.117647 30.117647 0 0 1-30.117647-30.117647V557.176471a30.117647 30.117647 0 0 1 60.235294 0v165.647058a30.117647 30.117647 0 0 1-30.117647 30.117647zM828.235294 813.176471a30.117647 30.117647 0 0 1-30.117647-30.117647V496.941176a30.117647 30.117647 0 0 1 60.235294 0v286.117648a30.117647 30.117647 0 0 1-30.117647 30.117647zM873.411765 256a30.117647 30.117647 0 0 1-21.232941-8.884706l-195.764706-195.764706a30.117647 30.117647 0 0 1 0-42.465882 30.117647 30.117647 0 0 1 42.465882 0l195.764706 195.764706A30.117647 30.117647 0 0 1 873.411765 256z" fill="#472D22" p-id="3812"></path></svg>