<?xml version="1.0" standalone="no"?><!DOCTYPE svg PUBLIC "-//W3C//DTD SVG 1.1//EN" "http://www.w3.org/Graphics/SVG/1.1/DTD/svg11.dtd"><svg t="1631014802642" class="icon" viewBox="0 0 1024 1024" version="1.1" xmlns="http://www.w3.org/2000/svg" p-id="5641" xmlns:xlink="http://www.w3.org/1999/xlink" width="200" height="200"><defs><style type="text/css"></style></defs><path d="M864 688.8a80 80 0 0 0-8.96-13.92l-32 3.84a44.48 44.48 0 0 1-46.88-29.28l-10.24-29.12a136.32 136.32 0 0 0-45.6 0l-11.36 30.4a43.68 43.68 0 0 1-48 28l-32-5.12a138.56 138.56 0 0 0-18.4 30.4L632 729.28a43.52 43.52 0 0 1 0 54.56l-21.44 25.28a114.4 114.4 0 0 0 8.8 17.76 46.56 46.56 0 0 0 8.96 12.64l34.08-5.12a44.64 44.64 0 0 1 46.88 29.6l10.08 30.4a144 144 0 0 0 46.88 0l11.52-32a42.88 42.88 0 0 1 46.72-28l32 5.12a115.36 115.36 0 0 0 16-30.4l-20.32-24a44 44 0 0 1-1.28-54.56l21.6-25.28c-2.56-5.12-5.12-10.08-8.8-16z" fill="#28D900" opacity=".15" p-id="5642"></path><path d="M907.52 701.12l2.72 6.72-32 38.72a20.16 20.16 0 0 0 0 24l32 37.28-2.72 6.72a154.88 154.88 0 0 1-29.28 52l-5.28 5.28-49.44-7.84a19.04 19.04 0 0 0-20 12l-17.28 48-6.72 1.28a178.24 178.24 0 0 1-75.84 0l-8.16-1.28-16-46.72a19.04 19.04 0 0 0-20-12l-50.72 8-5.28-5.28a83.52 83.52 0 0 1-16-22.72 124.16 124.16 0 0 1-13.44-30.56l-2.56-6.72 33.28-37.28a18.24 18.24 0 0 0 0-22.72l-32-38.72 2.72-6.56a163.04 163.04 0 0 1 30.56-53.44l5.44-5.28 48 8a21.6 21.6 0 0 0 21.44-12l17.28-46.72 6.72-1.28a177.44 177.44 0 0 1 74.56 0l8 1.28 16 45.44A20.64 20.64 0 0 0 824.96 652l49.28-6.72 5.28 5.44a91.2 91.2 0 0 1 16 24 252 252 0 0 1 12 26.56zM864 688.8a80 80 0 0 0-8.96-13.92l-32 3.84a44.48 44.48 0 0 1-46.88-29.28l-10.24-29.12a136.32 136.32 0 0 0-45.6 0l-11.36 30.4a43.68 43.68 0 0 1-48 28l-32-5.12a138.56 138.56 0 0 0-18.4 30.4L632 729.28a43.52 43.52 0 0 1 0 54.56l-21.44 25.28a114.4 114.4 0 0 0 8.8 17.76 46.56 46.56 0 0 0 8.96 12.64l34.08-5.12a44.64 44.64 0 0 1 46.88 29.6l10.08 30.4a144 144 0 0 0 46.88 0l11.52-32a42.88 42.88 0 0 1 46.72-28l32 5.12a115.36 115.36 0 0 0 16-30.4l-20.32-24a44 44 0 0 1-1.28-54.56l21.6-25.28c-2.56-5.12-5.12-10.08-8.8-16zM742.4 818.56a59.84 59.84 0 0 1-60-59.52 59.84 59.84 0 0 1 59.52-60 59.68 59.68 0 0 1 60 59.52 60.64 60.64 0 0 1-60 60z m0-26.72a32.96 32.96 0 0 0 33.28-32 33.12 33.12 0 0 0-32-33.44 32.96 32.96 0 0 0-33.28 32 32.96 32.96 0 0 0 32 33.28zM468.64 442.72A164.48 164.48 0 1 0 304 278.24a164.32 164.32 0 0 0 164.64 164.48z m-35.36 34.72a202.08 202.08 0 1 1 80-1.76 314.08 314.08 0 0 1 80 18.4 348.96 348.96 0 0 1 92.48 52 18.88 18.88 0 0 1 3.2 26.72 19.2 19.2 0 0 1-26.88 3.04A309.76 309.76 0 0 0 580 529.6a282.24 282.24 0 0 0-97.6-17.6A325.28 325.28 0 0 0 176 738.24a80 80 0 0 0-0.96 48c6.4 16 23.84 24.48 60 24.48h240a19.04 19.04 0 1 1 0 37.92h-240c-50.4 0-82.24-16-96-48a113.12 113.12 0 0 1 0-73.44 365.92 365.92 0 0 1 294.24-249.76z" fill="#28D900" p-id="5643"></path></svg>