<?xml version="1.0" standalone="no"?><!DOCTYPE svg PUBLIC "-//W3C//DTD SVG 1.1//EN" "http://www.w3.org/Graphics/SVG/1.1/DTD/svg11.dtd"><svg t="1631014096845" class="icon" viewBox="0 0 1024 1024" version="1.1" xmlns="http://www.w3.org/2000/svg" p-id="15839" xmlns:xlink="http://www.w3.org/1999/xlink" width="200" height="200"><defs><style type="text/css"></style></defs><path d="M705.6384 911.7184h-341.504c-103.8848 0-188.3648-87.9616-188.3648-196.0448V446.3104c0-59.4944 25.4976-115.0464 69.888-152.4224L417.792 148.992c69.0688-58.1632 169.0624-57.856 237.824 0.7168l169.4208 144.2816c43.8784 37.376 69.0688 92.672 69.0688 151.7056 0 11.3152-9.1648 20.48-20.48 20.48s-20.48-9.1648-20.48-20.48c0-47.0016-19.9168-90.9312-54.6816-120.5248l-169.4208-144.2816c-53.4528-45.5168-131.1744-45.7728-184.8832-0.5632l-172.1344 144.896c-35.1744 29.5936-55.296 73.728-55.296 121.088v269.3632c0 85.504 66.1504 155.0848 147.4048 155.0848h341.5552c81.3056 0 147.4048-69.5808 147.4048-155.0848v-142.8992c0-11.3152 9.1648-20.48 20.48-20.48s20.48 9.1648 20.48 20.48v142.8992c0 108.0832-84.5312 196.0448-188.416 196.0448z" fill="#55524F" p-id="15840"></path><path d="M766.1568 342.3232l-141.568-120.576c-51.3536-43.7248-124.9792-43.9808-176.5888-0.512L304.2304 342.272C271.1552 370.1248 251.904 412.16 251.904 456.5504v225.024c0 80.9984 62.8224 146.688 140.288 146.688h285.3376c77.4656 0 140.288-65.6896 140.288-146.688V456.0384c0-44.1344-18.944-85.8624-51.6608-113.7152z" fill="#ffe048" p-id="15841"></path><path d="M298.9056 571.7504c-11.3152 0-20.48-9.1648-20.48-20.48V472.5248c0-41.1136 18.3296-79.4112 50.3808-105.216l67.2256-54.1184a20.43392 20.43392 0 0 1 28.7744 3.1232 20.43392 20.43392 0 0 1-3.1232 28.7744L354.4576 399.2576c-22.3232 17.9712-35.072 44.6464-35.072 73.3184v78.7456c0 11.264-9.1648 20.4288-20.48 20.4288z" fill="#55524F" p-id="15842"></path></svg>